<svg width="64" height="64" viewBox="0 0 64 64" fill="none" xmlns="http://www.w3.org/2000/svg">
<g clip-path="url(#clip0)">
<path d="M63.942 31.97C63.942 49.63 49.625 63.94 31.97 63.94C14.311 63.94 0 49.629 0 31.97C0 14.313 14.311 0 31.97 0C49.624 0 63.942 14.313 63.942 31.97" fill="#1E75BB"/>
<path d="M15.1198 41.31C9.45479 29.155 9.19979 16.07 14.3238 5.26001C5.64179 10.974 -0.0952148 20.795 -0.0952148 31.966C-0.0952148 49.626 14.2158 63.936 31.8748 63.936C32.1888 63.936 32.4988 63.897 32.8108 63.889C25.4808 57.722 19.3048 50.298 15.1198 41.314" fill="#186DA3"/>
<path fill-rule="evenodd" clip-rule="evenodd" d="M17.9084 38.5329C17.5064 38.3729 16.5774 38.2089 16.5624 38.6579C16.5384 39.3769 16.3734 38.3429 16.6234 38.3429C16.9414 38.3429 17.7824 38.1879 17.9084 38.5329Z" fill="#00A650"/>
<path fill-rule="evenodd" clip-rule="evenodd" d="M16.6235 37.07C16.4305 36.991 16.8925 36.82 16.5625 36.752C16.6495 36.622 16.7835 36.815 16.9495 36.689C16.7715 36.854 16.8565 36.884 16.9495 37.071C16.8465 36.995 16.6765 36.846 16.6235 37.071" fill="#00A650"/>
<path d="M28.424 16.04C28.266 16.792 28.011 17.451 27.598 17.947C27.288 17.767 26.998 17.564 27.085 16.992C27.634 16.781 27.482 15.858 28.424 16.04" fill="#00A650"/>
<path d="M29.3254 23.677C29.0134 23.805 29.5584 23.874 29.3844 24.248C29.0804 24.304 29.1824 23.942 28.8174 24.058C28.8794 23.613 28.9454 23.582 28.8174 23.167C28.5704 23.244 28.1364 23.401 27.8524 23.231C27.7694 23.025 28.0614 23.182 27.9774 22.977C27.8334 23.041 27.6834 23.105 27.6594 23.294C27.5994 23.498 27.8294 23.425 27.8524 23.549C27.8784 23.827 27.7384 23.944 27.5994 24.057C27.2694 23.918 27.1734 23.55 27.0864 23.166C27.1264 23.058 27.3884 23.171 27.4084 23.04C27.4714 22.825 27.2074 22.942 27.0864 22.913C27.0354 22.718 27.2604 22.789 27.2144 22.595C27.2154 22.457 26.9874 22.564 26.8924 22.531C26.8644 22.114 26.5884 21.948 26.7014 21.387C26.8574 21.394 27.0114 21.396 27.0864 21.322V20.24C27.3194 20.199 27.3774 19.977 27.5324 19.86C27.9354 19.819 27.9394 20.18 28.4254 20.05V21.387C28.2394 21.474 28.1014 21.613 27.8524 21.641V22.025C27.8784 22.192 28.1804 22.081 28.2354 22.215C28.2714 22.459 27.8644 22.269 27.8524 22.467C27.8104 22.868 28.4334 22.74 28.4924 22.531C28.6644 22.681 28.9324 22.73 29.1994 22.786C29.1124 23.252 29.4084 23.34 29.4514 23.677H30.1544C30.1534 23.818 30.2094 23.88 30.3474 23.868V24.63H30.0234C29.9804 24.888 30.2344 24.85 30.1534 25.141C30.0804 25.213 29.9284 25.212 29.7704 25.203C29.8004 24.812 29.3524 24.51 29.7074 24.185C29.6844 23.916 29.3644 23.931 29.3254 23.677" fill="#00A650"/>
<path d="M29.2 25.3319C29.397 25.3609 29.342 25.1369 29.583 25.2039C29.619 25.3569 29.828 25.3409 29.772 25.5869C29.077 25.4239 28.988 25.8679 28.56 25.9679C28.398 25.8719 28.208 25.8069 28.236 25.5229C28.256 25.2859 28.576 25.3509 28.56 25.0779C28.449 24.9299 28.07 25.0549 27.853 25.0139C27.887 24.7249 28.151 24.6799 28.039 24.2489C28.823 24.0489 28.714 24.7319 29.07 24.9489C29.271 24.9819 29.117 24.6569 29.261 24.6309C29.583 24.7199 29.382 25.2089 29.2 25.3319" fill="#00A650"/>
<path d="M30.1501 25.395C30.3471 25.387 30.3341 25.596 30.6001 25.523C30.5411 25.859 30.7931 25.879 30.9181 26.032C30.9191 26.403 30.8351 26.875 31.1111 26.984C30.8921 27.199 30.9511 27.678 30.5361 27.686C30.4931 27.594 30.6051 27.357 30.4671 27.367C30.1951 27.43 30.4141 27.991 30.3421 28.259C29.7651 28.237 29.4971 27.908 29.1931 27.624C29.1421 27.403 29.2601 27.353 29.3191 27.24C29.2891 27.057 29.1851 26.951 28.9951 26.924C28.8151 27.032 28.5571 27.249 28.3591 26.985C28.1541 26.956 28.3101 27.279 28.1661 27.305C27.6491 26.774 28.6691 26.279 29.1931 26.161V26.479C29.4341 26.464 29.5481 26.325 29.7651 26.287V25.97C29.9231 25.978 30.0751 25.979 30.1481 25.905C30.1501 25.733 30.1501 25.565 30.1501 25.395Z" fill="#00A650"/>
<path d="M5.66318 26.1599C6.15718 26.4049 6.73718 28.6719 5.41018 28.4499C5.29818 27.4949 5.58818 26.9399 5.66318 26.1599Z" fill="#00A650"/>
<path d="M24.9772 27.11C24.8802 27.611 25.1922 27.698 25.2332 28.066C25.7762 27.969 25.8872 28.304 26.1282 28.51C26.0882 28.836 25.6322 28.741 25.7432 29.212H25.2342C25.1142 29.365 25.2302 29.758 25.0412 29.847C25.1712 30.136 25.4872 30.249 25.3612 30.8C25.5702 31.012 26.0562 30.958 25.9362 31.5C25.6692 31.555 25.1522 31.355 25.1702 31.693C25.3062 31.996 25.8782 31.877 25.7442 32.453C25.3772 32.478 25.4542 32.061 25.1042 32.074C24.8952 32.096 25.0012 32.44 24.9782 32.647C24.6032 32.553 24.6262 32.849 24.3972 32.901C24.5252 33.705 24.0772 33.939 24.2062 34.745C23.8052 34.423 23.5442 34.676 23.0572 34.745C22.9902 33.849 21.8492 34.057 21.3332 34.365C21.3342 34.208 21.3342 34.058 21.2662 33.982H20.3702C20.3902 33.564 20.0502 33.495 20.1842 32.965C20.1832 32.801 19.9672 32.838 19.7972 32.837C19.7242 32.208 19.3212 31.912 19.4102 31.119C19.6432 31.077 19.7022 30.855 19.8602 30.737C20.2622 30.654 20.1842 31.054 20.6262 30.928C20.8832 30.505 21.4772 30.415 21.7142 29.972C22.5732 29.769 22.5102 28.666 23.5722 28.637C23.6472 28.561 23.6432 28.412 23.6352 28.255H23.9552C23.9372 27.772 24.4552 27.819 24.3972 27.3C24.7712 27.418 24.6692 27.057 24.9772 27.11" fill="#00A650"/>
<path d="M11.9302 28.449H12.1832C12.3492 28.65 12.6862 28.668 13.0852 28.639C13.4822 29 13.5052 29.745 14.2302 29.785C14.3372 30.55 15.0852 30.67 15.7012 30.93C15.8432 31.407 16.3962 31.471 16.5342 31.948C16.6232 32.291 16.2872 32.215 16.3452 32.52C16.9912 32.594 16.8312 33.474 17.4272 33.6C17.4982 33.366 17.2692 33.419 17.2992 33.219C17.4832 33.145 17.5502 32.953 17.8782 33.03C17.6702 33.727 18.4742 33.669 18.2612 34.176C18.0642 34.222 18.1412 34.001 17.9392 34.047C17.4002 34.629 18.0642 35.28 17.6842 35.894C17.4082 35.788 17.1872 35.621 16.7232 35.703C16.5432 35.077 15.6102 35.204 15.5722 34.43C15.5012 34.359 15.3512 34.359 15.1892 34.368C15.1732 33.985 14.9922 33.762 14.8062 33.541C14.8362 33.064 14.6202 32.838 14.4232 32.586C14.3922 31.219 13.1442 31.064 12.8892 29.915C12.3962 29.595 11.9582 29.228 11.9302 28.449" fill="#00A650"/>
<path d="M27.3442 31.694H28.7502C28.6592 32.027 28.5532 32.346 28.2342 32.454C28.0732 32.069 27.6502 31.937 27.3442 31.694Z" fill="#00A650"/>
<path d="M27.8522 32.3299C27.7022 32.5539 26.9562 32.4739 26.7012 32.3929V32.1409C26.9792 32.0709 27.8522 31.9119 27.8522 32.3299Z" fill="#00A650"/>
<path d="M33.2203 32.454H33.4153C33.2713 33.045 33.7433 33.025 33.8033 33.411H33.2203C33.2833 33.02 33.0723 32.754 33.2203 32.454Z" fill="#00A650"/>
<path d="M35.3403 33.4749C35.2013 33.4689 34.8243 33.7049 34.3843 33.5999C34.2933 33.3189 34.5953 33.4369 34.5703 33.2189C34.4123 32.8229 33.4653 33.2189 33.6133 32.5219C34.1323 32.5269 35.0093 32.4149 35.9153 32.4549C36.1623 32.5929 35.9903 33.1429 36.3003 33.2199C36.3483 33.4159 36.1263 33.3449 36.1723 33.5389C36.1603 33.6749 36.3993 33.5669 36.4933 33.6009V34.0469C36.5013 34.2309 36.7583 34.1659 36.9393 34.1759C37.3603 33.6369 38.0413 33.3609 38.4713 32.8389C39.0143 33.1889 39.4233 33.6779 40.3923 33.6009C40.9153 33.8859 41.4133 34.2009 42.2463 34.1759C42.5503 34.6369 43.1173 34.8339 43.5873 35.1289V35.6379C44.0863 35.7989 44.7543 35.7949 44.7393 36.4659C44.5743 36.4659 44.3663 36.4309 44.3503 36.5909C44.3073 36.9009 44.6643 36.7939 44.5493 37.1659C44.6243 37.2379 44.7733 37.2369 44.9333 37.2279C44.8203 37.6389 45.2233 37.5329 45.1243 37.9269C45.6853 38.1559 46.1523 38.4759 46.2763 39.1379C45.8703 39.2009 45.7713 38.9579 45.6293 38.7559H44.5493C44.3153 38.3119 43.8903 38.0459 43.7783 37.4819C43.2723 37.3169 42.7453 36.9459 42.2463 37.2919C42.3453 37.6919 41.9443 37.5849 42.0573 37.9919C41.6153 38.1299 41.1643 38.2519 40.5193 38.1829C40.1223 37.3809 39.4193 37.4239 38.4133 37.6129C38.3093 37.0459 38.5743 36.8419 38.9833 36.7839C38.8373 35.5319 37.8913 35.0749 36.6243 34.9379C36.1933 34.5829 35.7373 34.4999 35.1513 34.7469C35.2133 34.2389 35.0223 33.9839 34.5703 33.9839C34.6703 33.6579 35.2883 33.8479 35.3403 33.4749" fill="#00A650"/>
<path d="M32.6493 33.22C32.6493 33.48 32.2973 33.715 32.0723 33.539C32.2093 33.372 32.4073 33.276 32.6493 33.22Z" fill="#00A650"/>
<path d="M33.8032 34.556C33.3842 34.216 32.9952 34.386 32.5862 34.238C32.2672 34.261 32.3452 34.681 31.8832 34.556C31.8712 34.325 32.1522 34.253 31.8832 34.11C32.2312 33.447 34.0512 33.835 33.8032 34.556Z" fill="#00A650"/>
<path d="M31.497 34.2399C31.452 34.5549 31.122 34.5909 30.731 34.5579C30.588 33.9609 31.334 33.8219 31.497 34.2399Z" fill="#00A650"/>
<path d="M20.5012 36.59C20.6352 36.601 20.5222 36.365 20.5582 36.274C21.1542 36.259 21.4942 36.488 21.9092 36.656C22.1022 36.467 22.4462 36.427 22.8632 36.466C22.9032 36.882 22.4112 36.783 22.1622 36.909C22.2252 37.188 22.7862 36.967 23.0572 37.036C23.1502 37.328 23.3972 37.464 23.8212 37.42C23.8222 37.577 23.8352 37.726 23.7642 37.801C23.3652 37.835 23.2252 37.413 22.9942 37.801C22.6842 37.472 21.8632 37.656 21.2662 37.613C20.8752 37.428 20.5162 37.213 19.9252 37.228C19.7192 37.285 19.8402 37.019 19.6702 37.037C18.9632 37.43 18.0412 36.761 17.4902 36.402C17.7862 35.707 18.0822 36.105 18.9002 36.085C19.2282 36.457 19.9742 36.417 20.5012 36.59" fill="#00A650"/>
<path d="M31.1104 37.0999C31.1594 37.3249 30.5794 37.2489 30.5354 37.1649C30.4844 36.9389 31.0614 37.0159 31.1104 37.0999Z" fill="#00A650"/>
<path d="M26.1301 37.7999C25.3781 38.0429 24.6911 37.8959 24.0151 37.9899C24.0141 37.6419 24.1241 37.4169 24.4631 37.4189C24.8171 37.9709 25.9601 36.8779 26.1301 37.7999" fill="#00A650"/>
<path d="M27.8522 37.611V37.99C27.1972 38.131 27.0902 37.73 26.5112 37.8C26.6472 37.062 27.3182 37.658 27.8522 37.611Z" fill="#00A650"/>
<path d="M29.9621 37.48C30.0111 37.705 29.4391 37.63 29.3831 37.545C29.3361 37.323 29.9171 37.396 29.9621 37.48Z" fill="#00A650"/>
<path d="M31.3701 37.674C30.8491 38.045 30.0411 38.132 29.7701 38.755C29.3401 38.645 29.2911 38.915 29.0001 38.945C28.8161 37.911 29.9791 38.219 30.2221 37.611C30.7901 37.841 31.2671 37.123 31.3701 37.674Z" fill="#00A650"/>
<path d="M46.0804 37.99C46.4454 38.052 46.5744 38.346 46.7204 38.626C46.6484 38.643 46.6734 38.753 46.5904 38.755C46.3644 38.618 46.3254 38.297 46.0204 38.245C46.0074 38.131 46.0924 38.111 46.0804 37.99Z" fill="#00A650"/>
<path d="M26.1304 38.1799H26.8944C26.8954 38.4869 27.3204 38.3929 27.2794 38.7529C26.7034 38.8799 26.6854 38.4489 26.1304 38.5619V38.1799Z" fill="#00A650"/>
<path d="M37.06 52.688C37.269 52.665 37.336 52.495 37.445 52.369C36.925 52.408 36.618 53.194 35.909 53.259C36.048 52.464 35.293 52.559 35.271 51.923C34.639 51.954 34.237 51.761 33.861 51.544C33.553 51.467 33.692 51.836 33.352 51.732C33.012 51.342 32.327 51.731 32.009 51.923C30.775 51.82 30.03 52.207 29.58 52.878H28.749C28.19 52.389 27.428 52.997 27.021 53.259C26.193 53.317 25.5 53.245 25.167 52.816C25.489 52.231 25.339 51.394 24.782 51.161C24.715 50.016 23.896 49.625 23.633 48.68H23.953C23.868 48.129 23.463 47.892 23.25 47.47C23.657 47.221 23.246 46.265 23.503 46.008C23.774 45.909 23.515 46.336 23.694 46.326C24.083 45.909 24.551 45.57 25.039 45.244C25.258 45.193 25.308 45.315 25.422 45.373C25.738 45.156 26.255 45.14 26.51 44.863C27.361 45.258 27.784 44.259 28.234 43.845V43.144C28.542 43.133 28.449 42.721 28.817 42.763C28.775 43.075 28.896 43.232 29.131 43.271C29.273 43.164 29.155 42.787 29.198 42.572H29.707C29.774 42.335 29.549 42.391 29.581 42.191C30.122 41.753 30.581 41.239 31.37 41.045C31.694 41.21 31.844 41.551 32.136 41.746C32.475 41.46 32.468 41.917 32.968 41.809C32.709 41.397 33.005 41.294 33.03 40.854C33.19 40.855 33.339 40.866 33.415 40.792V40.28C33.814 40.043 34.653 40.241 34.887 39.836C34.918 39.532 34.495 39.675 34.565 39.327C35.562 39.602 36.544 40.227 37.446 39.9C37.469 40.091 37.709 40.065 37.634 40.345C37.196 40.652 37.097 41.292 36.743 41.68C37.128 42.296 38.068 42.36 38.467 42.954H38.979C38.873 43.443 39.387 43.312 39.561 43.525C39.787 43.525 39.731 43.228 40.067 43.335C40.349 42.743 40.645 42.171 40.515 41.173C40.703 40.782 40.917 40.426 40.896 39.835C41.033 39.67 41.155 39.498 41.091 39.137H41.472C41.583 39.813 41.914 40.27 41.856 41.109C41.98 41.478 42.573 41.376 42.819 41.617C42.61 42.802 43.381 43.007 43.202 44.162C43.584 44.526 44.063 44.791 44.547 45.054C44.415 45.586 44.831 45.575 44.736 46.072C44.879 46.226 45.153 46.254 45.315 46.39C45.352 47.181 45.895 47.461 46.274 47.915C46.194 48.599 45.98 49.155 46.081 50.017C45.637 50.274 45.465 50.806 45.315 51.351C45.093 51.453 44.884 51.565 44.93 51.924C44.455 51.967 44.205 52.22 44.161 52.69C43.848 52.955 43.423 53.101 43.393 53.642C43.162 53.624 43.219 53.892 43.011 53.899V54.408C42.581 54.68 41.602 54.408 41.471 54.978H40.514V54.661C40.224 54.624 40.218 54.874 40.066 54.978C39.245 55.121 38.957 54.728 38.213 54.787C38.224 54.649 38.16 54.586 38.022 54.598V53.96C37.867 53.824 37.815 53.575 37.446 53.643C37.365 53.329 37.602 53.331 37.57 53.07C37.164 53.023 37.235 53.454 36.868 53.454C36.88 53.146 37.162 53.107 37.06 52.688" fill="#00A650"/>
<path d="M37.0601 53.703C37.1151 53.929 36.5351 53.853 36.4871 53.766C36.4361 53.546 37.0101 53.62 37.0601 53.703Z" fill="#00A650"/>
<path d="M39.9374 55.9309C40.3274 55.8599 40.5104 55.9999 40.7094 56.1219C40.9064 55.9999 41.0824 55.8589 41.4714 55.9309C41.6274 56.8309 40.4374 57.3819 39.9374 56.8239C40.2074 56.5639 39.8364 56.3869 39.9374 55.9309Z" fill="#00A650"/>
<path d="M3.93423 17.9569C3.93423 17.9549 3.93423 17.9519 3.93823 17.9509C4.28823 18.0249 4.38023 17.8429 4.64123 17.8259C4.68123 18.2089 4.54223 18.7759 4.76723 18.9699C4.57823 19.2469 4.33723 19.4739 4.44723 20.0509C4.76723 20.1339 4.76123 19.8979 5.02423 19.9259C4.91623 20.4939 4.55423 20.8189 4.64123 21.5779C4.69723 21.7839 4.47523 21.7089 4.44823 21.8329C4.55123 23.6229 4.23723 25.8169 4.64123 27.3029C5.32023 27.0649 5.23423 26.0709 5.79423 25.7129C5.82223 24.5779 6.58723 24.1719 6.36723 22.7869C6.56823 22.5599 7.01123 22.5809 7.00323 22.1519C7.35023 22.2569 7.28523 21.9609 7.52023 21.9609C7.78523 21.0569 8.67723 20.7799 9.11923 20.0509C9.56523 20.1399 9.49423 19.7089 9.82223 19.6709V19.1599C9.8832 19.1442 9.93879 19.1123 9.98314 19.0676C10.0275 19.0229 10.059 18.967 10.0742 18.9059C10.9512 18.9959 11.3992 18.6529 11.9302 18.3969C11.9302 18.9929 11.8732 19.6339 12.4362 19.6689C12.5032 19.9239 12.2502 19.8599 12.3112 20.1129C12.7592 20.5949 12.3722 21.5149 12.3112 22.0869C13.0402 22.3369 13.2692 21.5519 13.8452 21.4509C13.6002 22.6219 14.3902 23.6559 13.8452 24.5039C14.2262 25.0769 13.5172 25.9189 13.6542 26.8579C13.6832 26.9999 13.9932 26.8579 14.0392 26.9829C14.1182 27.4199 14.2882 27.7589 14.6162 27.9389C14.4902 28.4689 14.8292 29.0689 14.6162 29.2769C14.6522 29.4949 14.8492 29.5529 14.9992 29.6579C14.9912 30.7859 16.2472 30.6579 16.5352 31.5019C16.7092 31.4609 17.0422 31.5829 17.1122 31.4379C17.1352 31.2249 16.8322 31.3339 16.7232 31.2479C16.8002 30.6449 16.5712 30.3439 16.3462 30.0399V28.5129C15.8292 28.1539 15.6392 27.4739 14.8062 27.4319C14.9422 26.7719 14.4942 26.6779 14.6172 26.0319C14.5892 25.8899 14.2792 26.0319 14.2322 25.9039C14.2502 25.2879 14.5682 24.9639 14.8072 24.5689C14.7672 24.0369 14.9062 23.6889 15.1902 23.4859C15.4902 23.4479 15.3562 23.8369 15.3882 24.0589C15.8892 23.9619 15.9802 24.2759 16.3472 24.3149V24.9499C16.5252 25.0499 16.8482 24.9999 16.7242 25.3959C16.9282 25.4109 17.1962 25.3529 17.3012 25.4589V26.5399C17.7212 26.1699 18.3612 26.0239 18.5192 25.3959C19.2732 25.1909 19.8282 24.7899 20.1862 24.1879V22.2169C19.9172 22.0739 19.9452 21.9319 19.7992 21.6429C19.6762 21.3969 19.1532 21.1479 19.0332 20.9429C18.9932 20.8819 19.0732 20.7439 19.0332 20.6889C18.8182 20.3969 18.4882 20.2699 18.6482 19.5429C19.3652 19.1769 19.6582 18.3919 20.6952 18.3359C21.0032 18.4929 20.8252 19.1369 21.2682 19.1629C20.8852 19.3539 20.2892 19.3299 20.1862 19.7989C20.1822 20.1619 20.4822 20.2229 20.6282 20.4359C21.2072 20.3109 21.3392 19.7409 21.7162 19.4169C21.7302 19.1089 21.3452 19.1959 21.3352 18.9089C21.6292 18.3919 22.3142 18.2709 22.9962 18.1439C23.5582 17.5409 24.1152 17.6899 25.1062 17.5729C25.1532 17.3239 25.3042 17.1769 25.4262 16.9989C26.3902 17.0929 26.2522 16.0809 27.0892 16.0459C26.9432 15.1599 27.8452 15.3159 27.8552 14.5829C28.4992 14.5199 28.5152 13.8389 28.8202 13.4369C28.7292 13.2509 28.2022 13.4939 28.1122 13.3099C28.0722 13.0359 28.5622 13.2899 28.6232 13.1179C28.8642 12.1609 27.9502 12.3469 28.0402 11.5289C27.8882 11.3499 27.6692 11.2269 27.5352 11.0199C27.9772 10.6079 28.3802 10.1619 29.2022 10.1289V9.80795C28.9852 9.65895 28.4362 9.84995 28.3692 9.55395C28.1282 9.67395 27.9032 9.81595 27.6622 9.93495C27.4622 9.96795 27.4562 9.79795 27.4742 9.61695C27.2632 9.50995 26.9152 9.53495 26.9582 9.17295C28.0362 9.26895 28.1272 8.38095 29.1342 8.40995C29.0242 8.76695 28.7532 8.96295 28.6232 9.29695C29.1282 9.30795 29.6972 8.50895 30.5442 8.85395C30.6002 9.16495 30.4932 9.31195 30.3512 9.42795C30.3912 9.78795 30.8252 9.75895 31.2442 9.74495C31.1142 10.2879 31.1932 10.5239 31.1192 11.2729C31.8082 11.2549 32.2392 10.9879 32.8472 10.8909C32.9612 9.84395 32.5342 9.33395 31.8882 9.04695C31.9992 8.62695 32.5792 8.67295 32.8472 8.40995C32.8272 7.78495 33.4192 7.75295 33.7402 7.45395C34.9722 8.14495 35.6042 6.82895 36.4292 6.50195C36.5282 6.13395 36.7562 5.89495 37.0652 5.73695V4.46395C37.7482 4.63295 37.5432 5.68295 38.0262 6.05395C37.9492 6.53095 37.9812 6.78695 38.2172 7.07295C38.1602 7.48395 37.5982 7.39395 37.4492 7.70795C37.8622 8.11295 37.9612 9.08495 37.6372 9.68095C37.3982 9.77295 37.5212 9.50895 37.3202 9.55495C37.0792 9.69595 37.4852 9.72595 37.3862 9.93595C36.7682 9.84895 36.6792 10.2949 36.1702 10.3189C36.0312 10.3079 36.1432 10.5429 36.1082 10.6369C35.5992 10.3599 35.2192 10.8709 34.4422 10.7009C34.0092 11.1169 33.4552 11.4139 32.8462 11.6539C32.7912 12.1959 33.2072 12.2649 33.2232 12.7359C33.3912 12.8109 33.5922 12.8399 33.6752 12.9919C34.1132 12.9629 33.8932 12.2769 34.1832 12.0999C34.2342 11.7369 33.8222 11.8289 33.8652 11.4639H34.3172C34.4462 11.5679 34.3112 11.9329 34.4422 12.0379C34.8402 12.0299 34.9392 11.7229 35.4642 11.8449C35.6532 11.7539 35.4042 11.2349 35.5902 11.1449C35.8192 11.3459 35.8972 11.6879 36.1692 11.8449C36.4112 11.6819 36.6892 11.5569 36.6852 11.1449C37.2112 11.2629 37.8302 11.3789 38.0252 10.9539C38.2272 10.9009 38.2222 11.0549 38.3472 11.0829C38.5092 11.1019 38.3922 10.8359 38.5962 10.8899C38.4852 9.99295 38.7322 9.44995 38.9812 8.91795C38.7632 8.54495 38.3202 8.38695 38.2782 7.83795C38.6202 7.81795 38.9452 7.81095 39.0452 8.02695C39.3662 7.91795 39.3782 7.50495 39.9412 7.64495C39.9752 7.55195 39.8692 7.31795 40.0032 7.32795C39.8292 7.03995 39.3402 7.05895 38.8542 7.07295C38.8132 6.69695 38.2682 6.80995 38.2182 6.43595C38.2722 6.25695 38.5622 6.31095 38.7912 6.30795C38.8162 5.94995 38.4632 5.95995 38.2182 5.86395V5.41795C38.2602 5.29395 38.5732 5.43295 38.5982 5.29295V5.03695C37.8572 4.91195 37.9562 3.93695 37.3872 3.63795C37.1322 3.61695 37.2072 3.92995 37.0062 3.95295C36.5682 3.71495 36.0902 3.50795 35.5922 3.82695C35.5302 3.58995 35.7542 3.64695 35.7232 3.44695C35.4232 3.32195 35.3162 3.71295 35.1512 3.50895C35.0782 3.17595 35.5532 3.23495 35.8532 3.06395C36.2032 2.86395 36.8092 2.08295 37.3212 2.68295C38.4282 2.55795 39.1112 2.85495 40.0712 2.87395C40.2372 2.80395 40.0502 2.38195 40.2052 2.29995H40.8372C40.8732 2.47895 41.0652 2.50695 41.0962 2.68295C41.4102 2.75895 41.2682 2.38995 41.6082 2.49195C41.5052 2.75195 41.5522 3.15895 41.0962 3.06495C41.0012 4.31295 42.7072 4.34495 42.4432 5.35595C42.7472 5.34695 42.7532 5.03295 43.0172 4.97395C42.8412 4.25195 43.5622 4.40895 43.3992 3.70195C43.1662 3.29795 42.3832 3.44195 42.3092 2.87495C42.7692 3.00395 42.7072 3.05795 43.1402 2.87495C43.3822 2.80795 43.3532 3.00795 43.4592 3.06495C43.5822 3.06295 43.7082 3.07295 43.8382 3.08895C43.7437 2.96694 43.662 2.83559 43.5942 2.69695C43.4752 2.45895 43.8592 2.64295 43.8382 2.40695C40.1222 1.07095 35.4362 -0.086051 30.6732 0.136949C28.3212 0.248949 25.6742 0.616949 23.5102 1.22095C17.1742 2.98395 11.9712 6.35595 8.22423 10.4429C6.40823 12.4339 4.68623 15.0859 3.26123 17.7269C3.42323 17.7939 3.56123 17.5369 3.68523 17.6579C3.77523 17.7529 3.86223 17.8539 3.93423 17.9569" fill="#00A650"/>
<path d="M29.7711 31.12V31.694C29.2381 31.585 29.3961 32.168 28.8751 32.075C28.8211 32.356 28.8301 32.702 28.4921 32.71C28.3931 32.98 28.8261 32.711 28.8181 32.901C28.7911 33.197 28.3741 32.963 28.3661 32.838C28.2161 33.051 28.1251 33.318 27.9181 33.475C28.1811 34.018 28.2951 34.708 28.8181 35.001C28.7191 35.205 28.5361 35.321 28.6211 35.701H28.2361V35.382C27.9991 35.315 28.0481 35.541 27.8531 35.512C27.7981 35.291 27.5731 35.24 27.4721 35.066C27.4361 34.922 27.5921 34.975 27.6001 34.874C27.2391 34.705 27.4091 34.005 27.0871 33.794C26.6631 34.076 27.0001 35.107 26.8941 35.702H26.1301C26.1601 35.242 26.4381 35.035 26.3181 34.429C26.2191 34.324 25.9431 34.378 25.7451 34.367C25.8791 33.502 26.1521 33.003 25.9371 32.268C26.1681 32.306 26.1361 32.079 26.1301 31.885H26.4521C26.6971 30.428 28.7051 31.827 29.7711 31.12V31.12ZM28.2341 32.454C28.5521 32.346 28.6591 32.027 28.7501 31.694H27.3441C27.6501 31.937 28.0731 32.069 28.2341 32.454ZM26.7011 32.14V32.392C26.9551 32.473 27.6981 32.553 27.8521 32.329C27.8521 31.912 26.9791 32.071 26.7011 32.14Z" fill="#00A650"/>
<path d="M31.6881 30.548H31.8831C31.9841 30.754 31.8671 30.79 31.8831 31.057C32.1361 31.119 32.0761 30.867 32.3271 30.93C32.3481 31.014 32.4431 31.03 32.4551 31.12C32.5461 31.397 32.2101 31.255 32.2631 31.501C32.2811 31.804 32.7041 31.701 32.6481 32.075C32.0081 31.925 32.1071 32.514 31.6871 32.583C31.6881 32.872 31.9691 32.897 32.0721 33.092C32.0171 33.331 31.8351 33.45 31.4961 33.411C31.3381 32.3 31.3861 31.576 31.6881 30.548" fill="#00A650"/>
<path d="M7.78378 23.536H20.7198V26.488H11.2638V30.112H19.6638V33.064H11.2638V37.048H20.8638V40H7.78378V23.536ZM23.7916 23.536H30.6076C33.1196 23.536 35.0556 24.224 36.4156 25.6C37.7916 26.96 38.4796 29.016 38.4796 31.768C38.4796 34.52 37.7916 36.584 36.4156 37.96C35.0556 39.32 33.1196 40 30.6076 40H23.7916V23.536ZM30.6076 37.048C32.0156 37.048 33.0796 36.624 33.7996 35.776C34.5356 34.912 34.9036 33.696 34.9036 32.128V31.408C34.9036 29.84 34.5356 28.632 33.7996 27.784C33.0796 26.92 32.0156 26.488 30.6076 26.488H27.2716V37.048H30.6076ZM48.1439 40.288C45.9199 40.288 44.1919 39.744 42.9599 38.656C41.7279 37.568 41.1119 35.976 41.1119 33.88V23.536H44.5919V33.712C44.5919 34.896 44.8959 35.8 45.5039 36.424C46.1279 37.032 47.0079 37.336 48.1439 37.336C49.2799 37.336 50.1599 37.032 50.7839 36.424C51.4239 35.8 51.7439 34.896 51.7439 33.712V23.536H55.2239V33.88C55.2239 35.976 54.5999 37.568 53.3519 38.656C52.1199 39.744 50.3839 40.288 48.1439 40.288Z" fill="white"/>
</g>
<defs>
<clipPath id="clip0">
<rect width="64" height="64" fill="white"/>
</clipPath>
</defs>
</svg>
